# generated from PmQm by Jehee Lee
:FULLY-SPECIFIED
:DEGREES
103
root -11.70990974 37.4004 -81.78477602 -109.1906141 82.16156437 -106.3003355
RightUpLeg -28.25514902 6.696663995 3.899974152
RightLeg 27.7032764 0 0
RightFoot 2.442542696 -2.248018364 -0.6979268065
RightToes 1.92085e-009 -1.59028e-015 9.93923e-017
Spine -1.75556 -5.79129 4.34813
Spine1 13.6259 -7.58342 4.38643
HEad -13.566 6.22916 4.07869
LeftShoulder1 9.93923e-017 0 1.22299e-017
LeftArm 11.7175 7.50564 -90.5834
LeftForeArm -37.2682 -62.6727 47.1084
LeftHand 0.976011 6.92348 -1.67737
RightShoulder 1.98785e-016 -4.96962e-017 1.55301e-017
RightArm 39.1736 -65.4776 20.9022
RightForeArm -19.3059 11.5479 2.84918
RightHand 1.57658 -14.6272 -3.0126
LeftUpLeg 5.584577824 -9.616257546 16.11899964
LeftLeg 44.90087686 0 0
LeftFoot 1.049755301 -15.9117203 3.551845679
LeftToes 4.31103e-010 -3.63601e-011 9.64948e-011
104
root -10.16981865 37.2029 -81.47375657 -109.1547086 80.27145105 -105.9291804
RightUpLeg -27.78721582 6.574763837 6.223112771
RightLeg 32.74244787 0 0
RightFoot -2.235508685 -2.477628013 -2.723599109
RightToes 1.92085e-009 -1.59028e-015 9.93923e-017
Spine 0.331519 -5.46778 7.36247
Spine1 13.4591 -6.76934 4.51971
HEad -14.5037 6.44868 4.09156
LeftShoulder1 9.93923e-017 0 1.22299e-017
LeftArm 10.4221 11.4784 -91.9819
LeftForeArm -30.1272 -55.099 36.4122
LeftHand 0.901935 6.47633 1.31754
RightShoulder 1.98785e-016 -4.96962e-017 1.55301e-017
RightArm 17.0491 -63.4042 41.7414
RightForeArm -12.7964 8.90945 4.75366
RightHand 1.55024 -14.6918 -2.55325
LeftUpLeg 0.151482647 -8.538272847 18.19335936
LeftLeg 55.70662382 0.6349263138 4.806129593
LeftFoot 13.8225522 -17.81945122 3.821254115
LeftToes 4.31103e-010 -3.63601e-011 9.64948e-011
105
root -8.620276622 37.325 -81.1974551 -115.7781391 79.37834766 -112.7877993
RightUpLeg -26.01177487 6.060276838 7.15115156
RightLeg 34.55157581 0 0
RightFoot -6.5747741 -3.649577678 -2.63345548
RightToes 1.92085e-009 -1.59028e-015 9.93923e-017
Spine 0.846855 -5.3103 8.02806
Spine1 13.5404 -6.44646 5.251
HEad -14.2986 6.16026 4.4925
LeftShoulder1 9.93923e-017 0 1.22299e-017
LeftArm 12.4596 15.0815 -92.916
LeftForeArm -27.7712 -43.9087 27.0879
LeftHand 0.775629 5.80344 3.26853
RightShoulder 1.98785e-016 -4.96962e-017 1.55301e-017
RightArm -0.524307 -58.0032 60.5623
RightForeArm -8.96007 7.92095 5.14719
RightHand 1.56665 -14.3975 -3.26318
LeftUpLeg -6.756860399 -8.002664562 18.15880793
LeftLeg 64.20466981 -0.2870999253 7.650592267
LeftFoot 19.39480255 -17.93096874 2.610682971
LeftToes 4.31103e-010 -3.63601e-011 9.64948e-011
106
root -6.900217123 37.8157 -81.07198187 -122.8267551 79.60112823 -120.1565829
RightUpLeg -22.37562488 6.577680228 6.961606285
RightLeg 32.88161441 0 0
RightFoot -8.53970732 -5.037330661 -1.613970143
RightToes 1.92085e-009 -1.59028e-015 9.93923e-017
Spine 0.581873 -4.68633 7.11653
Spine1 12.93 -5.91199 5.87413
HEad -12.6939 5.35226 4.4122
LeftShoulder1 9.93923e-017 0 1.22299e-017
LeftArm 21.6117 18.4883 -93.2877
LeftForeArm -34.2188 -30.7777 19.8349
LeftHand 0.60394 4.81192 3.40327
RightShoulder 1.98785e-016 -4.96962e-017 1.55301e-017
RightArm -8.33035 -50.9136 73.7077
RightForeArm -9.77932 9.7515 3.69496
RightHand 1.60589 -13.9 -4.75769
LeftUpLeg -13.10051175 -7.243763123 16.51415287
LeftLeg 68.86538007 -2.150483545 7.768767776
LeftFoot 17.36120122 -16.72402623 2.479413881
LeftToes 4.31103e-010 -3.63601e-011 9.64948e-011
107
root -5.126030678 38.3365 -81.08120418 -127.3605544 80.55603992 -124.7885234
RightUpLeg -18.06540613 8.156189562 6.432827264
RightLeg 30.25504086 0 0
RightFoot -9.843350121 -6.349222769 -0.9515400261
RightToes 1.92085e-009 -1.59028e-015 9.93923e-017
Spine 0.761676 -3.59697 6.74091
Spine1 11.4773 -4.56975 5.50274
HEad -10.2296 4.23995 3.85271
LeftShoulder1 9.93923e-017 0 1.22299e-017
LeftArm 17.8417 21.7748 -91.7167
LeftForeArm -26.7465 -20.4943 4.35433
LeftHand 0.601856 4.49241 1.18569
RightShoulder 1.98785e-016 -4.96962e-017 1.55301e-017
RightArm -3.29793 -43.5291 82.9509
RightForeArm -19.3771 14.624 -1.13688
RightHand 1.68943 -13.675 -6.5009
LeftUpLeg -18.27033796 -6.153588438 14.19616737
LeftLeg 69.91089195 -4.049011351 5.759868379
LeftFoot 13.34417285 -14.60708074 1.215464994
LeftToes 4.31103e-010 -3.63601e-011 9.64948e-011
108
root -3.328746479 38.6768 -81.16183651 -129.4772734 81.83128717 -127.0126298
RightUpLeg -13.91352358 8.189185532 5.815890488
RightLeg 28.09514501 0 0
RightFoot -11.81674128 -5.736269506 -0.910826693
RightToes 1.92085e-009 -1.59028e-015 9.93923e-017
Spine 0.99422 -2.27705 7.70239
Spine1 10.0216 -2.59201 3.73362
HEad -7.97011 3.03304 3.45601
LeftShoulder1 9.93923e-017 0 1.22299e-017
LeftArm -0.007368100005 25.6263 -87.7564
LeftForeArm -6.95158 -7.95279 -6.90103
LeftHand 0.816915 5.60738 -2.19873
RightShoulder 1.98785e-016 -4.96962e-017 1.55301e-017
RightArm 15.7242 -36.2031 89.675
RightForeArm -39.8984 19.3398 -12.2464
RightHand 1.82811 -13.8685 -8.11197
LeftUpLeg -22.71802431 -5.142380974 11.85233661
LeftLeg 68.12679195 -5.505213976 3.373419242
LeftFoot 11.41781602 -12.34263853 -0.9828801137
LeftToes 4.31103e-010 -3.63601e-011 9.64948e-011
109
root -1.479333785 38.8893 -81.27548248 -130.9119954 83.30995906 -128.7727296
RightUpLeg -9.90181528 6.369978777 4.764541245
RightLeg 25.78976176 0 0
RightFoot -13.62026231 -3.219767506 -0.9135560708
RightToes 1.92085e-009 -1.59028e-015 9.93923e-017
Spine 0.498827 -0.85661 9.06198
Spine1 9.46138 -0.474512 0.930274
HEad -6.88548 1.91107 3.35094
LeftShoulder1 9.93923e-017 0 1.22299e-017
LeftArm -14.1963 30.7453 -82.16
LeftForeArm 9.69716 -3.66668 -6.04232
LeftHand 1.04141 7.49271 -3.73018
RightShoulder 1.98785e-016 -4.96962e-017 1.55301e-017
RightArm 26.8619 -28.4539 92.9165
RightForeArm -47.6607 22.0178 -21.2747
RightHand 1.88314 -13.8398 -8.99642
LeftUpLeg -26.72695441 -4.328144516 9.684755267
LeftLeg 64.00297261 -6.400582383 1.663094287
LeftFoot 9.972888481 -10.38531 -1.784098712
LeftToes 4.31103e-010 -3.63601e-011 9.64948e-011
110
root 0.3724322201 38.9941 -81.41613161 -129.5958377 84.81137411 -127.7492949
RightUpLeg -6.088662282 4.819087943 3.617381116
RightLeg 23.58071939 0 0
RightFoot -14.92081482 -0.6408775094 -0.7640274176
RightToes 1.92085e-009 -1.59028e-015 9.93923e-017
Spine -0.144958 0.598864 10.6838
Spine1 9.64659 1.64641 -2.31149
HEad -7.18046 0.997845 3.16286
LeftShoulder1 9.93923e-017 0 1.22299e-017
LeftArm -13.4107 36.5208 -75.4939
LeftForeArm 10.5759 -2.83781 -5.66489
LeftHand 1.17066 8.54019 -2.48226
RightShoulder 1.98785e-016 -4.96962e-017 1.55301e-017
RightArm 26.49 -19.9517 93.4684
RightForeArm -40.8365 27.0017 -24.8876
RightHand 1.76643 -13.199 -8.93102
LeftUpLeg -29.84690026 -3.390385476 8.079731108
LeftLeg 57.54716356 -6.725187544 0.7225245284
LeftFoot 7.187129889 -8.529496486 -1.942910798
LeftToes 4.31103e-010 -3.63601e-011 9.64948e-011
111
root 2.207961787 38.9445 -81.60170561 -120.1952208 85.97466547 -118.3943844
RightUpLeg -2.445249362 4.099164072 2.807646493
RightLeg 22.1475051 0 0
RightFoot -16.59440704 1.436966451 -0.9299140218
RightToes 1.92085e-009 -1.59028e-015 9.93923e-017
Spine -0.0620464 1.98782 12.9916
Spine1 9.62421 3.74762 -5.66418
HEad -8.14953 0.172654 2.91702
LeftShoulder1 9.93923e-017 0 1.22299e-017
LeftArm -1.09161 42.2143 -67.6116
LeftForeArm 1.03678 -4.48364 -6.63433
LeftHand 1.13039 8.09324 -0.947496
RightShoulder 1.98785e-016 -4.96962e-017 1.55301e-017
RightArm 27.1096 -11.6054 92.9089
RightForeArm -36.1251 31.6814 -28.5761
RightHand 1.65536 -12.6311 -8.72355
LeftUpLeg -31.55177532 -2.300219563 7.354637005
LeftLeg 48.60858666 -6.735672289 -0.04076764793
LeftFoot 4.592005934 -6.673493287 -2.713973376
LeftToes 4.31103e-010 -3.63601e-011 9.64948e-011
